<svg width="10" height="20" viewBox="0 0 10 20" fill="none" xmlns="http://www.w3.org/2000/svg">
<path fill-rule="evenodd" clip-rule="evenodd" d="M9.39444 1.6343L9.4117 3.25948L8.23117 3.28072C6.44618 3.31294 6.43668 3.32262 6.43668 5.10779V6.23975H7.9554C8.7907 6.23975 9.47413 6.24841 9.47413 6.25899C9.47413 6.26958 9.40142 6.96986 9.31256 7.81522C9.2237 8.66051 9.151 9.40727 9.151 9.47468C9.151 9.59109 9.08346 9.59716 7.79384 9.59716H6.43668V14.375V19.1529H4.43326H2.42983V14.375V9.59716H1.49275H0.555664V7.91846V6.23975H1.48525H2.41484L2.44638 4.73861C2.48218 3.03918 2.54933 2.67503 2.97703 1.86189C3.50871 0.851055 4.48276 0.209919 5.73619 0.0458579C5.96155 0.0163515 6.87291 -0.00398673 7.76152 0.000661986L9.37719 0.00918451L9.39444 1.6343Z" fill="#D0916C"/>
<path fill-rule="evenodd" clip-rule="evenodd" d="M9.39444 1.6343L9.4117 3.25948L8.23117 3.28072C6.44618 3.31294 6.43668 3.32262 6.43668 5.10779V6.23975H7.9554C8.7907 6.23975 9.47413 6.24841 9.47413 6.25899C9.47413 6.26958 9.40142 6.96986 9.31256 7.81522C9.2237 8.66051 9.151 9.40727 9.151 9.47468C9.151 9.59109 9.08346 9.59716 7.79384 9.59716H6.43668V14.375V19.1529H4.43326H2.42983V14.375V9.59716H1.49275H0.555664V7.91846V6.23975H1.48525H2.41484L2.44638 4.73861C2.48218 3.03918 2.54933 2.67503 2.97703 1.86189C3.50871 0.851055 4.48276 0.209919 5.73619 0.0458579C5.96155 0.0163515 6.87291 -0.00398673 7.76152 0.000661986L9.37719 0.00918451L9.39444 1.6343Z" fill="#D0916C"/>
</svg>
