<svg width="40" height="40" viewBox="0 0 40 40" fill="none" xmlns="http://www.w3.org/2000/svg">
<path d="M38.2028 18.7641C39.0652 17.4512 39.5176 15.938 39.5176 14.3471C39.5176 12.2347 38.7074 10.237 37.2362 8.7218C36.0062 7.45492 34.4255 6.63914 32.7078 6.36883C32.7827 6.01281 32.8205 5.64859 32.8205 5.27883C32.8205 2.36812 30.4524 0 27.5416 0C24.6308 0 22.2627 2.36812 22.2627 5.27883C22.2627 5.90219 22.3705 6.51062 22.5795 7.08383C18.5325 7.32109 15.3125 10.6887 15.3125 14.7941C15.3125 16.7085 15.9994 18.5053 17.2593 19.9189C16.6973 20.9186 16.4029 22.0411 16.4029 23.2005C16.4029 26.9038 19.4156 29.9165 23.1189 29.9165C24.7473 29.9165 26.2977 29.3209 27.5 28.2868V38.4375H19.2188V35.5446C20.1391 35.1269 20.7812 34.1998 20.7812 33.125C20.7812 31.6603 19.5897 30.4688 18.125 30.4688H2.65625C1.19156 30.4688 0 31.6603 0 33.125C0 34.1998 0.642109 35.127 1.5625 35.5446V39.2188C1.5625 39.6502 1.91234 40 2.34375 40H5.46875C5.90016 40 6.25 39.6502 6.25 39.2188V35.7812H14.5312V38.4375H13.7891C13.3577 38.4375 13.0078 38.7873 13.0078 39.2188C13.0078 39.6502 13.3577 40 13.7891 40H31.7969C32.2283 40 32.5781 39.6502 32.5781 39.2188C32.5781 38.7873 32.2283 38.4375 31.7969 38.4375H29.0625V28.3123C30.2463 29.3305 31.7721 29.9166 33.3802 29.9166C37.0305 29.9166 40 26.947 40 23.2968C40 21.6023 39.3525 19.9864 38.2028 18.7641ZM4.6875 38.4375H3.125V35.7812H4.6875V38.4375ZM17.6562 38.4375H16.0938V35.7812H17.6562V38.4375ZM18.125 34.2188H2.65625C2.05312 34.2188 1.5625 33.7281 1.5625 33.125C1.5625 32.5219 2.05312 32.0312 2.65625 32.0312H18.125C18.7281 32.0312 19.2188 32.5219 19.2188 33.125C19.2188 33.7281 18.7281 34.2188 18.125 34.2188ZM33.3802 28.3541C31.6152 28.3541 29.9794 27.4296 29.0625 25.9286V22.2891C29.0689 22.2832 29.0755 22.2779 29.0818 22.2717L33.5218 17.8317C33.8269 17.5266 33.8269 17.032 33.5218 16.7268C33.2167 16.4218 32.7222 16.4217 32.4169 16.7268L29.0625 20.0813V12.7919C29.0625 12.3604 28.7127 12.0106 28.2812 12.0106C27.8498 12.0106 27.5 12.3604 27.5 12.7919V14.8192L26.8775 14.1967C26.5725 13.8916 26.078 13.8916 25.7726 14.1967C25.4675 14.5018 25.4675 14.9965 25.7726 15.3016L27.5 17.0289V22.0395L25.3625 19.902L25.3604 19.8998L23.4723 18.0118C23.1672 17.7067 22.6727 17.7067 22.3674 18.0118C22.0623 18.3169 22.0623 18.8116 22.3674 19.1166L23.5279 20.277L21.407 21.4364C21.0284 21.6434 20.8892 22.118 21.0962 22.4966C21.238 22.7563 21.5059 22.9034 21.7823 22.9034C21.909 22.9034 22.0375 22.8725 22.1564 22.8074L24.6792 21.4284L27.5 24.2492V25.912C26.5625 27.423 24.9016 28.354 23.1189 28.354C20.2773 28.354 17.9654 26.0422 17.9654 23.2005C17.9654 22.144 18.2839 21.1277 18.8864 20.2618C19.1064 19.9457 19.0632 19.5163 18.7845 19.2504C17.5532 18.0752 16.875 16.4926 16.875 14.7941C16.875 11.3969 19.6388 8.63305 23.036 8.63305C23.2821 8.63305 23.531 8.64898 23.7968 8.68172C24.1055 8.71953 24.4066 8.57141 24.5646 8.30414C24.7227 8.0368 24.7076 7.70125 24.5259 7.44937C24.0675 6.81383 23.8252 6.06328 23.8252 5.27898C23.8252 3.22977 25.4923 1.56266 27.5416 1.56266C29.5907 1.56266 31.2579 3.22977 31.2579 5.27898C31.2579 5.78805 31.1565 6.28156 30.9566 6.74602C30.8545 6.98344 30.8763 7.25594 31.0149 7.47398C31.1535 7.69203 31.391 7.8275 31.6494 7.8357C35.1852 7.94844 37.955 10.8086 37.955 14.3471C37.955 15.8231 37.472 17.2161 36.5584 18.3756C36.299 18.7049 36.3456 19.1803 36.6642 19.4528C37.7912 20.4166 38.4375 21.8177 38.4375 23.2967C38.4375 26.0854 36.1688 28.3541 33.3802 28.3541Z" fill="url(#paint0_linear_105_7)"/>
<path d="M35.5515 38.6664C35.4062 38.5211 35.2047 38.4375 34.9992 38.4375C34.7937 38.4375 34.5921 38.5211 34.4469 38.6664C34.3015 38.8117 34.218 39.0133 34.218 39.2188C34.218 39.4242 34.3015 39.6258 34.4469 39.7711C34.5921 39.9164 34.7937 40 34.9992 40C35.2047 40 35.4062 39.9164 35.5515 39.7711C35.6968 39.6258 35.7805 39.4242 35.7805 39.2188C35.7805 39.0133 35.6969 38.8117 35.5515 38.6664Z" fill="#C7825B"/>
<path d="M8.17642 13.4365C7.01595 13.0874 5.80791 13.4451 5.01697 14.2603C4.79416 14.0301 4.53463 13.8334 4.24439 13.6774C3.50611 13.2805 2.65736 13.1951 1.85478 13.4365C1.44166 13.5608 1.20744 13.9965 1.33174 14.4097C1.45595 14.8227 1.89181 15.0568 2.30494 14.9326C2.70791 14.8115 3.134 14.8544 3.50463 15.0536C3.87533 15.2528 4.14619 15.5844 4.26744 15.9874C4.36674 16.3176 4.6708 16.5437 5.01556 16.5437C5.36033 16.5437 5.66439 16.3176 5.76369 15.9875C6.014 15.1557 6.89439 14.6825 7.72627 14.9327C8.13947 15.057 8.57509 14.8229 8.69947 14.4097C8.82377 13.9965 8.58955 13.5608 8.17642 13.4365Z" fill="#C7825B"/>
<path d="M13.1607 7.67402C12.3583 7.43262 11.5096 7.51809 10.7712 7.91488C10.4815 8.07059 10.2225 8.26691 9.99995 8.49644C9.77745 8.26691 9.51839 8.07059 9.2287 7.91488C8.49034 7.51801 7.64144 7.43254 6.83917 7.67402C6.42597 7.79832 6.19183 8.23402 6.31612 8.6473C6.44042 9.06051 6.87644 9.29449 7.28933 9.17035C7.69206 9.04918 8.11823 9.09199 8.48894 9.29129C8.85964 9.49051 9.13058 9.82215 9.25183 10.2252C9.35112 10.5554 9.65519 10.7814 9.99995 10.7814C10.3447 10.7814 10.6488 10.5554 10.7481 10.2252C10.8693 9.82223 11.1403 9.49059 11.511 9.29129C11.8816 9.09207 12.3076 9.04918 12.7106 9.17035C13.1237 9.29457 13.5593 9.06043 13.6838 8.6473C13.8081 8.2341 13.5739 7.7984 13.1607 7.67402Z" fill="#C7825B"/>
<path d="M23.0358 10.2216H23.0297C22.5983 10.2216 22.2515 10.5714 22.2515 11.0029C22.2515 11.4344 22.6044 11.7841 23.0358 11.7841C23.4672 11.7841 23.8171 11.4344 23.8171 11.0029C23.8171 10.5714 23.4673 10.2216 23.0358 10.2216Z" fill="#C7825B"/>
<path d="M20.8301 11.6131C20.5179 11.3153 20.0233 11.3272 19.7256 11.6395C18.9115 12.4935 18.4633 13.6138 18.4633 14.7939C18.4633 15.2254 18.8131 15.5752 19.2445 15.5752C19.6759 15.5752 20.0258 15.2254 20.0258 14.7939C20.0258 14.017 20.3208 13.2796 20.8566 12.7176C21.1544 12.4053 21.1425 11.9107 20.8301 11.6131Z" fill="#C7825B"/>
<defs>
<linearGradient id="paint0_linear_105_7" x1="-16.5" y1="-14.5" x2="37.7229" y2="-24.2203" gradientUnits="userSpaceOnUse">
<stop stop-color="#EEC8AA"/>
<stop offset="1" stop-color="#C7825B"/>
</linearGradient>
</defs>
</svg>
