<svg width="124" height="35" viewBox="0 0 124 35" fill="none" xmlns="http://www.w3.org/2000/svg">
<path d="M50.6367 20.6016C53.2062 20.6016 55.82 20.6016 58.3895 20.6016C58.2566 20.2775 58.168 19.9535 58.0351 19.6294H51.0354C50.9025 19.9072 50.7696 20.2775 50.6367 20.6016Z" fill="url(#paint0_linear_103_4)"/>
<path d="M83.9073 33.889C83.1984 33.426 82.6225 32.8242 82.1352 32.1297C81.2492 30.8797 80.9391 29.9075 80.9391 29.9075C80.5403 28.7501 78.5025 23.6112 75.4457 15.8334C77.1291 12.4075 78.8126 8.93528 80.496 5.50935C81.8251 2.82416 83.0655 1.25009 84.5275 0.972313C84.6161 0.972313 84.6604 0.972313 84.749 0.972313C84.7933 0.972313 84.8819 0.972313 84.9262 0.972313C84.9262 0.648239 84.9262 0.324165 84.9262 0.0463867C84.7933 0.0463867 84.6604 0.0463867 84.5275 0.0463867H77.3949V1.01861C77.6164 1.01861 77.838 1.06491 78.0595 1.06491C78.8569 1.20379 79.4328 1.43528 79.7872 1.85194C79.7872 1.85194 80.1416 2.31491 80.1416 3.05565C80.1416 3.84268 77.7937 8.84268 74.9584 14.7223C73.2749 10.4631 71.3256 5.50935 69.1549 0.0463867H64.2374C64.5475 0.787127 64.8133 1.52787 65.1234 2.26861C65.3892 3.00935 65.6993 3.70379 65.9651 4.44454C68.0473 9.72231 70.1295 15.0001 72.2117 20.2316C72.1231 20.4168 72.0344 20.6019 71.9458 20.7871C70.3953 23.889 68.889 26.8982 67.6486 29.3982C65.2563 22.7779 63.4843 17.9631 62.0666 14.1668C60.8262 10.7871 59.0541 5.97231 56.9276 0.0463867H51.9659C52.6304 1.80565 53.2506 3.56491 53.9151 5.32416L45.0548 30.6019C43.3714 34.1668 41.3335 34.2594 41.3335 34.2594V35.0927H50.9469V34.2594C50.9469 34.2594 47.3585 34.4445 46.6497 31.7131C46.4725 30.926 46.4725 29.9538 46.7826 28.7038L48.9534 22.5001C49.485 20.926 50.0609 19.3982 50.5925 17.8242L54.4911 6.71305C55.8644 10.4168 57.2377 14.1205 58.6111 17.8242L59.2756 19.6297C59.4085 19.9538 59.5414 20.3242 59.6743 20.6482L60.2946 22.4538C61.8451 26.6668 63.3514 30.8334 64.9019 35.0464H66.1423C66.4968 34.3056 66.8512 33.5649 67.2056 32.8242C67.56 32.1297 67.8701 31.4353 68.2245 30.7871C68.2245 30.7871 68.2245 30.7871 68.2245 30.7408C69.6422 27.8242 71.1041 24.9075 72.5218 21.9908C72.6104 21.8056 72.699 21.6205 72.7876 21.4353C73.8508 24.0742 74.8698 26.6668 75.933 29.3056C75.9773 29.4445 76.1102 29.9075 76.2431 30.5556C76.5089 32.1297 75.9773 33.0556 75.2685 33.5649C74.2495 34.3519 72.7876 34.2594 72.7876 34.2594V35.0464H85.0148V34.2594L84.7047 34.2131C84.3946 34.1205 84.1288 34.0279 83.9073 33.889Z" fill="url(#paint1_linear_103_4)"/>
<path d="M41.289 19.5835H0V20.5557H41.289V19.5835Z" fill="url(#paint2_linear_103_4)"/>
<path d="M124 19.5835H84.9263V20.5557H124V19.5835Z" fill="url(#paint3_linear_103_4)"/>
<defs>
<linearGradient id="paint0_linear_103_4" x1="62.1177" y1="-674.972" x2="62.1177" y2="537.807" gradientUnits="userSpaceOnUse">
<stop offset="0.0891892" stop-color="#9B6D58"/>
<stop offset="0.1123" stop-color="#B48B76"/>
<stop offset="0.1395" stop-color="#CCA792"/>
<stop offset="0.167" stop-color="#DDBBA6"/>
<stop offset="0.1943" stop-color="#E8C7B2"/>
<stop offset="0.2216" stop-color="#EBCBB6"/>
<stop offset="0.2691" stop-color="#E7C6B0"/>
<stop offset="0.3324" stop-color="#DBB79F"/>
<stop offset="0.3339" stop-color="#D8B49C"/>
<stop offset="0.3478" stop-color="#C29981"/>
<stop offset="0.3636" stop-color="#B0836C"/>
<stop offset="0.3822" stop-color="#A2725B"/>
<stop offset="0.4052" stop-color="#986750"/>
<stop offset="0.4374" stop-color="#936049"/>
<stop offset="0.527" stop-color="#915E47"/>
<stop offset="0.5709" stop-color="#A16C52"/>
<stop offset="0.6461" stop-color="#B77D61"/>
<stop offset="0.719" stop-color="#C4886A"/>
<stop offset="0.7865" stop-color="#C88C6D"/>
<stop offset="0.8044" stop-color="#B47B5F"/>
<stop offset="0.8269" stop-color="#A36D53"/>
<stop offset="0.8547" stop-color="#97624A"/>
<stop offset="0.8932" stop-color="#905D45"/>
<stop offset="0.9944" stop-color="#8E5B44"/>
</linearGradient>
<linearGradient id="paint1_linear_103_4" x1="61.7754" y1="0.165322" x2="61.7754" y2="34.9558" gradientUnits="userSpaceOnUse">
<stop offset="0.0891892" stop-color="#9B6D58"/>
<stop offset="0.1123" stop-color="#B48B76"/>
<stop offset="0.1395" stop-color="#CCA792"/>
<stop offset="0.167" stop-color="#DDBBA6"/>
<stop offset="0.1943" stop-color="#E8C7B2"/>
<stop offset="0.2216" stop-color="#EBCBB6"/>
<stop offset="0.2691" stop-color="#E7C6B0"/>
<stop offset="0.3324" stop-color="#DBB79F"/>
<stop offset="0.3339" stop-color="#D8B49C"/>
<stop offset="0.3478" stop-color="#C29981"/>
<stop offset="0.3636" stop-color="#B0836C"/>
<stop offset="0.3822" stop-color="#A2725B"/>
<stop offset="0.4052" stop-color="#986750"/>
<stop offset="0.4374" stop-color="#936049"/>
<stop offset="0.527" stop-color="#915E47"/>
<stop offset="0.5709" stop-color="#A16C52"/>
<stop offset="0.6461" stop-color="#B77D61"/>
<stop offset="0.719" stop-color="#C4886A"/>
<stop offset="0.7865" stop-color="#C88C6D"/>
<stop offset="0.8044" stop-color="#B47B5F"/>
<stop offset="0.8269" stop-color="#A36D53"/>
<stop offset="0.8547" stop-color="#97624A"/>
<stop offset="0.8932" stop-color="#905D45"/>
<stop offset="0.9944" stop-color="#8E5B44"/>
</linearGradient>
<linearGradient id="paint2_linear_103_4" x1="61.9779" y1="-564.99" x2="61.9779" y2="467" gradientUnits="userSpaceOnUse">
<stop offset="0.0891892" stop-color="#9B6D58"/>
<stop offset="0.1123" stop-color="#B48B76"/>
<stop offset="0.1395" stop-color="#CCA792"/>
<stop offset="0.167" stop-color="#DDBBA6"/>
<stop offset="0.1943" stop-color="#E8C7B2"/>
<stop offset="0.2216" stop-color="#EBCBB6"/>
<stop offset="0.2691" stop-color="#E7C6B0"/>
<stop offset="0.3324" stop-color="#DBB79F"/>
<stop offset="0.3339" stop-color="#D8B49C"/>
<stop offset="0.3478" stop-color="#C29981"/>
<stop offset="0.3636" stop-color="#B0836C"/>
<stop offset="0.3822" stop-color="#A2725B"/>
<stop offset="0.4052" stop-color="#986750"/>
<stop offset="0.4374" stop-color="#936049"/>
<stop offset="0.527" stop-color="#915E47"/>
<stop offset="0.5709" stop-color="#A16C52"/>
<stop offset="0.6461" stop-color="#B77D61"/>
<stop offset="0.719" stop-color="#C4886A"/>
<stop offset="0.7865" stop-color="#C88C6D"/>
<stop offset="0.8044" stop-color="#B47B5F"/>
<stop offset="0.8269" stop-color="#A36D53"/>
<stop offset="0.8547" stop-color="#97624A"/>
<stop offset="0.8932" stop-color="#905D45"/>
<stop offset="0.9944" stop-color="#8E5B44"/>
</linearGradient>
<linearGradient id="paint3_linear_103_4" x1="104.459" y1="3.39228" x2="104.459" y2="32.298" gradientUnits="userSpaceOnUse">
<stop offset="0.0891892" stop-color="#9B6D58"/>
<stop offset="0.1123" stop-color="#B48B76"/>
<stop offset="0.1395" stop-color="#CCA792"/>
<stop offset="0.167" stop-color="#DDBBA6"/>
<stop offset="0.1943" stop-color="#E8C7B2"/>
<stop offset="0.2216" stop-color="#EBCBB6"/>
<stop offset="0.2691" stop-color="#E7C6B0"/>
<stop offset="0.3324" stop-color="#DBB79F"/>
<stop offset="0.3339" stop-color="#D8B49C"/>
<stop offset="0.3478" stop-color="#C29981"/>
<stop offset="0.3636" stop-color="#B0836C"/>
<stop offset="0.3822" stop-color="#A2725B"/>
<stop offset="0.4052" stop-color="#986750"/>
<stop offset="0.4374" stop-color="#936049"/>
<stop offset="0.527" stop-color="#915E47"/>
<stop offset="0.5709" stop-color="#A16C52"/>
<stop offset="0.6461" stop-color="#B77D61"/>
<stop offset="0.719" stop-color="#C4886A"/>
<stop offset="0.7865" stop-color="#C88C6D"/>
<stop offset="0.8044" stop-color="#B47B5F"/>
<stop offset="0.8269" stop-color="#A36D53"/>
<stop offset="0.8547" stop-color="#97624A"/>
<stop offset="0.8932" stop-color="#905D45"/>
<stop offset="0.9944" stop-color="#8E5B44"/>
</linearGradient>
</defs>
</svg>
