<svg width="901" height="174" viewBox="0 0 901 174" fill="none" xmlns="http://www.w3.org/2000/svg">
<g filter="url(#filter0_d_386_3)">
<path d="M45.2146 134H34.9946V32.78H42.6946C45.4013 32.78 50.0213 32.64 56.5546 32.36C65.328 32.1734 69.9946 32.08 70.5546 32.08C79.608 32.08 87.728 33.34 94.9146 35.86C102.101 38.2867 107.701 41.4134 111.715 45.24C115.355 48.6934 118.295 52.8467 120.535 57.7C123.708 64.7934 125.295 72.12 125.295 79.68C125.295 82.5734 125.108 85.5134 124.735 88.5C124.455 91.4867 123.801 94.8467 122.775 98.58C121.748 102.22 120.395 105.72 118.715 109.08C117.128 112.347 114.888 115.613 111.995 118.88C109.195 122.053 105.928 124.807 102.195 127.14C98.5546 129.38 93.9813 131.2 88.4746 132.6C83.0613 134 77.088 134.7 70.5546 134.7C67.848 134.7 65.328 134.653 62.9946 134.56C62.0613 134.56 61.0813 134.513 60.0546 134.42C59.028 134.42 58.2346 134.373 57.6746 134.28C57.208 134.28 56.8813 134.28 56.6946 134.28C55.2946 134.28 53.6613 134.233 51.7946 134.14C49.928 134.14 48.4813 134.093 47.4546 134C46.5213 134 45.7746 134 45.2146 134ZM112.275 80.94C112.275 66.38 108.168 54.48 99.9546 45.24C92.9546 37.5867 83.1546 33.76 70.5546 33.76C62.4346 33.76 54.548 34.4134 46.8946 35.72V130.92C53.3346 132.32 61.0813 133.02 70.1346 133.02C84.1346 133.02 94.6813 128.073 101.775 118.18C108.775 108.38 112.275 95.9667 112.275 80.94Z" fill="white"/>
<path d="M221.757 89.76V64.28C221.757 49.5334 221.29 39.0334 220.357 32.78H225.397C224.743 37.0734 224.323 42.16 224.137 48.04C224.137 49.2534 224.09 52.1934 223.997 56.86C223.903 61.4334 223.81 64.3267 223.717 65.54V89.76C223.717 96.6667 223.11 102.78 221.897 108.1C220.683 113.327 218.677 118.087 215.877 122.38C213.17 126.58 209.343 129.8 204.397 132.04C199.45 134.28 193.477 135.4 186.477 135.4C176.21 135.4 167.53 133.533 160.437 129.8C155.49 127.187 151.663 122.94 148.957 117.06C147.93 115.287 147.23 112.907 146.857 109.92C146.297 106.933 146.017 104.833 146.017 103.62C145.923 102.78 145.877 101.147 145.877 98.72V32.78H157.777V101.1C157.777 107.353 158.803 112.767 160.857 117.34C162.91 121.82 165.523 125.133 168.697 127.28C171.87 129.427 174.95 130.967 177.937 131.9C180.923 132.833 183.817 133.253 186.617 133.16C192.123 133.16 196.93 132.413 201.037 130.92C205.237 129.333 208.597 127.28 211.117 124.76C213.73 122.24 215.83 119.113 217.417 115.38C219.097 111.553 220.217 107.587 220.777 103.48C221.43 99.3734 221.757 94.8 221.757 89.76Z" fill="white"/>
<path d="M255.393 134H249.233V32.78H258.613C261.133 32.78 265.286 32.64 271.073 32.36C278.726 32.1734 282.926 32.08 283.673 32.08C295.526 32.08 304.3 33.9934 309.993 37.82C315.686 41.5534 318.533 46.8267 318.533 53.64C318.533 59.8934 316.293 65.2134 311.813 69.6C307.333 73.9867 301.173 76.88 293.333 78.28C302.106 79.5867 309.2 82.48 314.613 86.96C320.12 91.6267 322.873 97.5067 322.873 104.6C322.873 114.027 319.56 121.4 312.933 126.72C306.4 132.04 297.533 134.7 286.333 134.7C285.773 134.7 280.453 134.56 270.373 134.28C261.6 134.093 256.606 134 255.393 134ZM309.853 104.04C309.853 101.987 309.666 100.027 309.293 98.16C308.92 96.2 308.033 94.0067 306.633 91.58C305.326 89.1534 303.553 87.0534 301.313 85.28C299.166 83.5067 296.086 82.0134 292.073 80.8C288.153 79.5867 283.533 78.98 278.213 78.98H261.273V131.2C266.686 132.413 273.36 133.02 281.293 133.02C287.733 133.02 293.846 131.107 299.633 127.28C302.713 125.227 305.186 122.147 307.053 118.04C308.92 113.933 309.853 109.267 309.853 104.04ZM306.353 56.02C306.353 52.2867 305.606 49.02 304.113 46.22C302.713 43.3267 301.033 41.1334 299.073 39.64C297.113 38.1467 294.78 36.9334 292.073 36C289.366 35.0667 287.08 34.46 285.213 34.18C283.346 33.9 281.48 33.76 279.613 33.76C272.333 33.76 266.22 34.3667 261.273 35.58V77.3H281.293C284.746 77.3 288.246 76.74 291.793 75.62C294.22 74.9667 296.553 73.8934 298.793 72.4C300.94 71 302.713 68.8534 304.113 65.96C305.606 62.9734 306.353 59.66 306.353 56.02Z" fill="white"/>
<path d="M375.375 32.78H378.735L417.515 134H405.055C404.868 133.347 404.402 131.993 403.655 129.94C402.908 127.887 401.835 124.9 400.435 120.98C399.035 117.06 397.728 113.373 396.515 109.92C395.208 106.093 393.248 100.447 390.635 92.98H354.795L349.895 105.58C346.255 114.26 343.222 123.733 340.795 134H335.475C339.208 126.907 345.695 111.32 354.935 87.24L367.115 54.34L375.375 32.78ZM355.355 91.3H389.935L372.575 45.1L355.355 91.3Z" fill="white"/>
<path d="M435.717 32.78H447.617V134H435.717V32.78Z" fill="white"/>
<path d="M583.877 32.78V134H571.977V82.48H515.977V134H504.077V32.78H515.977V80.8H571.977V32.78H583.877Z" fill="white"/>
<path d="M609.077 32.78H620.977V134H609.077V32.78Z" fill="white"/>
<path d="M658.027 32.78V132.32H665.867C687.241 132.32 702.687 130.127 712.207 125.74L710.667 134H646.127V32.78H658.027Z" fill="white"/>
<path d="M739.512 32.78V132.32H747.352C768.725 132.32 784.172 130.127 793.692 125.74L792.152 134H727.612V32.78H739.512Z" fill="white"/>
<path d="M866.862 108.66C866.862 116.22 863.828 122.66 857.762 127.98C851.602 133.3 843.341 135.96 832.982 135.96C821.502 135.96 810.768 133.207 800.781 127.7L801.622 119.86C809.275 129.473 819.682 134.28 832.841 134.28C840.495 134.28 846.375 132.507 850.482 128.96C854.588 125.32 856.641 120.607 856.641 114.82C856.641 104.553 847.822 94.94 830.182 85.98C824.768 82.9934 821.082 80.8467 819.122 79.54C816.135 77.7667 813.195 75.62 810.302 73.1C804.328 68.06 801.341 61.8534 801.341 54.48C801.341 47.3867 803.955 41.6467 809.182 37.26C814.502 32.78 822.108 30.54 832.002 30.54C841.988 30.54 851.088 32.8267 859.302 37.4L858.461 45.24C852.302 36.56 843.482 32.22 832.002 32.22C825.002 32.22 819.821 33.6667 816.461 36.56C813.102 39.4534 811.422 43.28 811.422 48.04C811.422 54.1067 813.568 59.1 817.862 63.02C822.341 67.0334 828.781 71.1867 837.182 75.48C841.661 77.9067 845.302 80.0067 848.102 81.78C851.088 83.74 854.121 85.98 857.201 88.5C863.641 94.0067 866.862 100.727 866.862 108.66Z" fill="white"/>
</g>
<defs>
<filter id="filter0_d_386_3" x="0.994629" y="0.540039" width="899.867" height="173.42" filterUnits="userSpaceOnUse" color-interpolation-filters="sRGB">
<feFlood flood-opacity="0" result="BackgroundImageFix"/>
<feColorMatrix in="SourceAlpha" type="matrix" values="0 0 0 0 0 0 0 0 0 0 0 0 0 0 0 0 0 0 127 0" result="hardAlpha"/>
<feOffset dy="4"/>
<feGaussianBlur stdDeviation="17"/>
<feComposite in2="hardAlpha" operator="out"/>
<feColorMatrix type="matrix" values="0 0 0 0 0.115104 0 0 0 0 0.25376 0 0 0 0 0.354167 0 0 0 0.15 0"/>
<feBlend mode="normal" in2="BackgroundImageFix" result="effect1_dropShadow_386_3"/>
<feBlend mode="normal" in="SourceGraphic" in2="effect1_dropShadow_386_3" result="shape"/>
</filter>
</defs>
</svg>
