<svg width="28" height="40" viewBox="0 0 28 40" fill="none" xmlns="http://www.w3.org/2000/svg">
<path d="M14 40C17.713 40 21.274 38.525 23.8995 35.8995C26.525 33.274 28 29.713 28 26V14C28 10.287 26.525 6.72601 23.8995 4.1005C21.274 1.475 17.713 0 14 0C10.287 0 6.72602 1.475 4.10051 4.1005C1.475 6.72601 0 10.287 0 14V26C0 29.713 1.475 33.274 4.10051 35.8995C6.72602 38.525 10.287 40 14 40ZM2 14C2 10.8174 3.26428 7.76515 5.51472 5.51472C7.76516 3.26428 10.8174 2 14 2C17.1826 2 20.2348 3.26428 22.4853 5.51472C24.7357 7.76515 26 10.8174 26 14V26C26 29.1826 24.7357 32.2348 22.4853 34.4853C20.2348 36.7357 17.1826 38 14 38C10.8174 38 7.76516 36.7357 5.51472 34.4853C3.26428 32.2348 2 29.1826 2 26V14Z" fill="white"/>
</svg>
