<svg width="19" height="19" viewBox="0 0 19 19" fill="none" xmlns="http://www.w3.org/2000/svg">
<path fill-rule="evenodd" clip-rule="evenodd" d="M4.27841 0.714021C3.62274 1.08852 1.61813 3.38477 1.04691 4.41565C0.911594 4.65983 0.906341 4.68372 0.93209 4.93528C1.01869 5.77999 1.39705 6.99311 1.91936 8.10071C2.49511 9.32173 3.46873 10.7826 4.57674 12.0881C5.14179 12.7539 6.46606 14.0707 7.12396 14.6211C9.50487 16.6126 11.9028 17.8583 14.0639 18.2262C14.2584 18.2593 14.4718 18.2864 14.5382 18.2864C14.7665 18.2864 15.3956 17.8851 16.3453 17.1335C17.5717 16.163 18.5368 15.2153 18.7023 14.819C18.8346 14.502 18.5747 14.2032 17.6229 13.5781C16.2424 12.6714 14.9568 11.9543 14.3492 11.7519C14.0648 11.6573 14.0426 11.6554 13.9001 11.7143C13.7081 11.7937 13.5814 11.9147 13.0333 12.5421C12.7867 12.8244 12.505 13.132 12.4073 13.2257L12.2297 13.3961L11.9752 13.3309C11.1458 13.1183 10.0257 12.5378 9.0957 11.8386C8.68427 11.5293 7.99143 10.8639 7.60846 10.4103C6.8866 9.55525 6.20188 8.32065 5.92688 7.37831L5.83706 7.07041L6.05268 6.85134C6.17128 6.73085 6.4653 6.46681 6.70608 6.2646C7.26142 5.79823 7.4628 5.59143 7.53945 5.40872C7.59592 5.2741 7.59445 5.24378 7.51987 5.00425C7.29688 4.28798 5.66736 1.56587 5.07851 0.925868C4.75109 0.57 4.60038 0.530125 4.27841 0.714021ZM10.467 1.23128V1.86295L10.656 1.86327C11.4849 1.86469 12.5858 2.12999 13.4406 2.53434C14.9006 3.22495 16.0037 4.29548 16.7151 5.7122C17.1608 6.59997 17.3503 7.26836 17.4399 8.2685L17.4884 8.81134H18.1167H18.7449V8.63787C18.7449 8.33451 18.6674 7.66122 18.5808 7.21242C18.3452 5.99175 17.6893 4.599 16.909 3.66266C15.4831 1.95158 13.5724 0.911418 11.3899 0.658157C11.1124 0.625942 10.7912 0.599609 10.6762 0.599609H10.467V1.23128ZM10.467 4.37831V5.00994L10.7813 5.03596C11.7097 5.11278 12.5158 5.49601 13.1931 6.1826C13.837 6.83531 14.1956 7.60678 14.2728 8.50537L14.299 8.81134H14.9301H15.5611V8.6486C15.5611 8.10398 15.3169 7.13907 15.041 6.59374C14.5555 5.63391 13.6938 4.76955 12.7554 4.30093C12.1637 4.0055 11.5007 3.82406 10.8293 3.77376L10.467 3.74664V4.37831Z" fill="#D29470"/>
</svg>
