<svg width="55" height="55" viewBox="0 0 55 55" fill="none" xmlns="http://www.w3.org/2000/svg">
<g clip-path="url(#clip0_226_1295)">
<path d="M34.9173 38.6087C34.0791 37.7704 32.9647 37.3089 31.7792 37.3089C30.5939 37.3089 29.4795 37.7704 28.6413 38.6087L25.7088 41.5411C25.4986 41.7516 25.1562 41.7516 24.946 41.5411L13.5114 30.1066C13.301 29.8962 13.301 29.554 13.5114 29.3437L16.4437 26.4112C17.2821 25.573 17.7436 24.4586 17.7436 23.2732C17.7436 22.0878 17.2819 20.9734 16.4437 20.1352L11.5241 15.2155C9.79383 13.4855 6.97853 13.4854 5.24818 15.2155C5.24807 15.2155 5.24807 15.2155 5.24807 15.2155L4.25185 16.2118C-1.40817 21.872 -1.40817 31.0817 4.25185 36.7419L18.2585 50.7486C21.0004 53.4904 24.646 55.0004 28.5236 55.0004C32.4012 55.0004 36.0467 53.4904 38.7885 50.7486L39.7848 49.7523C41.515 48.0221 41.515 45.2067 39.7848 43.4763L34.9173 38.6087ZM6.76726 16.7346C7.65993 15.8419 9.11253 15.8418 10.0052 16.7346L14.925 21.6543C15.3573 22.0867 15.5955 22.6617 15.5955 23.2732C15.5955 23.8847 15.3573 24.4597 14.9249 24.8921L12.752 27.065L4.67386 18.9869C5.00672 18.5499 6.76726 16.7346 6.76726 16.7346ZM19.7777 49.2296L5.77104 35.2229C1.88875 31.3407 1.1327 25.4989 3.50106 20.8522L11.3919 28.743C11.0147 29.7076 11.2145 30.8475 11.9925 31.6256L23.4272 43.0602C24.2051 43.8381 25.3451 44.038 26.3097 43.6609L34.1524 51.5036C32.4312 52.3851 30.5135 52.8524 28.5239 52.8524C25.2199 52.8523 22.1138 51.5658 19.7777 49.2296ZM38.266 48.2334C38.266 48.2334 36.4531 49.9925 36.0145 50.3277L27.9875 42.3007L30.1604 40.1279C31.0532 39.2351 32.5058 39.2353 33.3983 40.1279L38.266 44.9955C38.6984 45.4278 38.9365 46.0029 38.9365 46.6144C38.9365 47.226 38.6984 47.8009 38.266 48.2334Z" fill="url(#paint0_linear_226_1295)"/>
<path d="M52.9052 9.28904C52.6243 8.7665 51.9732 8.57047 51.4506 8.85113C50.9281 9.1319 50.7321 9.78323 51.0127 10.3057C52.2115 12.5369 52.8452 15.0645 52.8452 17.6151C52.8452 26.1435 45.9068 33.0819 37.3783 33.0819C28.8499 33.0819 21.9115 26.1435 21.9115 17.6151C21.9115 9.08657 28.8499 2.14818 37.3783 2.14818C39.929 2.14818 42.4564 2.78178 44.6876 3.98057C45.2106 4.26166 45.8615 4.06543 46.1422 3.54288C46.4229 3.02034 46.2269 2.36901 45.7045 2.08835C43.1617 0.72211 40.2826 0 37.3782 0C27.6653 0 19.7632 7.90207 19.7632 17.6151C19.7632 27.328 27.6653 35.2301 37.3782 35.2301C47.0912 35.2301 54.9933 27.328 54.9933 17.6151C54.9933 14.7109 54.2713 11.8317 52.9052 9.28904Z" fill="url(#paint1_linear_226_1295)"/>
<path d="M24.4893 17.6156C24.4893 24.7227 30.2713 30.5047 37.3783 30.5047C44.4853 30.5047 50.2674 24.7227 50.2674 17.6156C50.2674 10.5086 44.4853 4.72656 37.3783 4.72656C30.2713 4.72656 24.4893 10.5086 24.4893 17.6156ZM48.0657 16.5415H46.5082C45.915 16.5415 45.4341 17.0224 45.4341 17.6156C45.4341 18.2087 45.915 18.6897 46.5082 18.6897H48.0657C47.5604 23.7565 43.5193 27.7976 38.4525 28.3029V26.7454C38.4525 26.1522 37.9715 25.6713 37.3784 25.6713C36.7852 25.6713 36.3043 26.1522 36.3043 26.7454V28.3029C31.2375 27.7976 27.1965 23.7565 26.691 18.6897H28.2487C28.8418 18.6897 29.3228 18.2087 29.3228 17.6156C29.3228 17.0224 28.8418 16.5415 28.2487 16.5415H26.691C27.1964 11.4747 31.2374 7.4337 36.3043 6.92823V8.48587C36.3043 9.07899 36.7852 9.55996 37.3784 9.55996C37.9715 9.55996 38.4525 9.07899 38.4525 8.48587V6.92823C43.5193 7.4337 47.5604 11.4747 48.0657 16.5415Z" fill="url(#paint2_linear_226_1295)"/>
<path d="M37.3784 16.0968L35.5124 14.2308C35.0928 13.8115 34.4129 13.8115 33.9933 14.2308C33.5739 14.6502 33.5739 15.3303 33.9933 15.7499L36.6188 18.3754C36.8286 18.585 37.1034 18.69 37.3783 18.69C37.6531 18.69 37.928 18.585 38.1378 18.3754L42.8906 13.6225C43.31 13.2031 43.31 12.523 42.8906 12.1036C42.4711 11.6842 41.7912 11.6842 41.3715 12.1036L37.3784 16.0968Z" fill="url(#paint3_linear_226_1295)"/>
<path d="M49.0741 6.99193C49.3576 6.99193 49.6337 6.87807 49.8335 6.67829C50.0343 6.47744 50.1491 6.20151 50.1491 5.91902C50.1491 5.63654 50.0343 5.35942 49.8335 5.15857C49.6337 4.95878 49.3575 4.84375 49.0741 4.84375C48.7916 4.84375 48.5156 4.95868 48.3147 5.15857C48.115 5.35942 48 5.63654 48 5.91902C48 6.20043 48.1149 6.47744 48.3147 6.67829C48.5145 6.87807 48.7916 6.99193 49.0741 6.99193Z" fill="url(#paint4_linear_226_1295)"/>
</g>
<defs>
<linearGradient id="paint0_linear_226_1295" x1="20.5446" y1="13.918" x2="20.5446" y2="55.0004" gradientUnits="userSpaceOnUse">
<stop stop-color="#E3B493"/>
<stop offset="1" stop-color="#D0916C"/>
</linearGradient>
<linearGradient id="paint1_linear_226_1295" x1="37.3782" y1="0" x2="37.3782" y2="35.2301" gradientUnits="userSpaceOnUse">
<stop stop-color="#E3B493"/>
<stop offset="1" stop-color="#D0916C"/>
</linearGradient>
<linearGradient id="paint2_linear_226_1295" x1="37.3783" y1="4.72656" x2="37.3783" y2="30.5047" gradientUnits="userSpaceOnUse">
<stop stop-color="#E3B493"/>
<stop offset="1" stop-color="#D0916C"/>
</linearGradient>
<linearGradient id="paint3_linear_226_1295" x1="38.4419" y1="11.7891" x2="38.4419" y2="18.69" gradientUnits="userSpaceOnUse">
<stop stop-color="#E3B493"/>
<stop offset="1" stop-color="#D0916C"/>
</linearGradient>
<linearGradient id="paint4_linear_226_1295" x1="49.0746" y1="4.84375" x2="49.0746" y2="6.99193" gradientUnits="userSpaceOnUse">
<stop stop-color="#E3B493"/>
<stop offset="1" stop-color="#D0916C"/>
</linearGradient>
<clipPath id="clip0_226_1295">
<rect width="55" height="55" fill="white"/>
</clipPath>
</defs>
</svg>
