<svg width="55" height="55" viewBox="0 0 55 55" fill="none" xmlns="http://www.w3.org/2000/svg">
<g clip-path="url(#clip0_226_1304)">
<path d="M53.1201 17.5564H51.4929C51.5273 17.1943 51.373 16.887 51.0299 16.6347C50.9835 16.6129 49.9757 16.1427 48.272 15.6128V10.3725C48.272 9.92751 47.9112 9.56679 47.4663 9.56679C40.605 9.56679 35.3971 11.6668 32.2366 13.4285C30.4569 14.4204 29.1161 15.4102 28.2243 16.1469C28.0886 14.6708 27.7351 12.4325 26.8238 10.061C24.7404 4.6401 20.728 1.16489 15.2202 0.0108603C14.6462 -0.0344717 14.3227 0.22839 14.2493 0.799444V4.48101C12.8333 3.90641 11.3587 3.4548 9.84908 3.13845C9.27523 3.09322 8.95157 3.35598 8.8782 3.92703V15.0233C5.91186 15.7303 4.05292 16.5956 3.9701 16.6345C3.6271 16.8868 3.47273 17.1941 3.50711 17.5562H1.87988C0.843369 17.5562 0 18.3995 0 19.4361V44.0726C0 45.1143 1.61133 45.1143 1.61133 44.0726V19.4363C1.61133 19.2882 1.73186 19.1677 1.87988 19.1677H3.50711V50.8493C3.50711 51.2943 3.86783 51.655 4.31277 51.655H50.6872C51.1322 51.655 51.4929 51.2943 51.4929 50.8493V19.1677H53.1201C53.2681 19.1677 53.3887 19.2882 53.3887 19.4363V53.114C53.3887 53.262 53.2681 53.3826 53.1201 53.3826H29.9221C28.6161 52.0375 26.384 52.0375 25.0779 53.3826H1.87988C1.73186 53.3826 1.61133 53.262 1.61133 53.114V48.9783C1.61133 47.9366 0 47.9366 0 48.9783V53.114C0 54.1505 0.843369 54.9939 1.87988 54.9939H25.4459C25.6978 54.9939 25.9352 54.876 26.0875 54.6755C26.7883 53.7527 28.2117 53.7527 28.9125 54.6755C29.0648 54.876 29.3022 54.9939 29.5541 54.9939H53.1201C54.1566 54.9939 55 54.1505 55 53.114V19.4363C55 18.3997 54.1566 17.5564 53.1201 17.5564ZM46.6606 11.1882V19.4372C46.6606 19.8822 47.0213 20.2429 47.4663 20.2429C47.9112 20.2429 48.272 19.8822 48.272 19.4372V17.305C48.9791 17.5385 49.5273 17.7496 49.8816 17.8945V23.4119V47.2332C43.9276 45.3485 38.9894 45.5354 35.4369 46.256C38.5313 44.9005 42.5648 43.7863 47.4663 43.7863C47.9112 43.7863 48.272 43.4256 48.272 42.9807V24.3786C48.272 23.9337 47.9112 23.573 47.4663 23.573C47.0213 23.573 46.6606 23.9337 46.6606 24.3786V42.1847C40.1964 42.3403 35.2723 44.3445 32.2366 46.0366C30.5122 46.9977 29.1986 47.9575 28.3074 48.6864V18.2265C29.5338 17.0505 35.9214 11.4579 46.6606 11.1882ZM15.8606 1.82146C20.3452 3.04381 23.5185 5.99007 25.3013 10.5916C26.7535 14.3396 26.6962 17.8377 26.6954 17.8739C26.6953 17.8801 26.6952 17.8861 26.6952 17.8921V42.3433C24.6625 37.3185 20.9305 34.0215 15.8606 32.7655V1.82146ZM14.2493 6.22812V33.4077C14.2493 33.7889 14.5166 34.1181 14.8897 34.1963C19.8895 35.2436 23.3924 38.2729 25.3013 43.1997C25.8185 44.5346 26.1441 45.8377 26.3491 46.964C25.7275 46.0658 24.9442 45.0437 23.9831 43.9815C21.382 41.1069 16.956 37.4167 10.4895 35.8895V15.6579C10.4895 15.657 10.4895 15.6561 10.4895 15.6551V4.94002C11.7814 5.26637 13.0406 5.6981 14.2493 6.22812ZM5.11844 17.8942C5.77371 17.6262 7.09511 17.1311 8.8782 16.6829V36.5354C8.8782 36.9166 9.14547 37.2457 9.51865 37.324C15.8862 38.6579 20.228 42.2451 22.7492 45.0194C23.7772 46.1507 24.5955 47.2434 25.2183 48.1699C24.2386 47.6865 23.0122 47.176 21.5517 46.7469C17.9737 45.6957 12.2799 44.9663 5.11854 47.2332V23.4119V17.8942H5.11844ZM5.11844 48.9286C12.0842 46.6072 17.5919 47.2771 21.0169 48.2694C22.8578 48.8027 24.3068 49.4817 25.3168 50.0437H5.11844V48.9286ZM29.6778 50.0437C30.6698 49.4915 32.0901 48.8254 33.9026 48.2929C37.3422 47.2824 42.8759 46.5939 49.8816 48.9286V50.0437H29.6778Z" fill="url(#paint0_linear_226_1304)"/>
</g>
<defs>
<linearGradient id="paint0_linear_226_1304" x1="27.5" y1="0.00585937" x2="27.5" y2="54.9939" gradientUnits="userSpaceOnUse">
<stop stop-color="#E3B493"/>
<stop offset="1" stop-color="#D0916C"/>
</linearGradient>
<clipPath id="clip0_226_1304">
<rect width="55" height="55" fill="white"/>
</clipPath>
</defs>
</svg>
