<svg width="55" height="55" viewBox="0 0 55 55" fill="none" xmlns="http://www.w3.org/2000/svg">
<path d="M37.8751 28.7673C37.8744 28.7659 37.8738 28.7649 37.8731 28.7636C37.7699 28.544 37.5924 28.3579 37.3554 28.2474C36.8178 27.9967 36.1785 28.2292 35.9278 28.7671L29.366 42.8414C29.1153 43.3791 29.348 44.0182 29.8857 44.2689C30.0325 44.3375 30.1869 44.3697 30.3389 44.3697C30.7434 44.3697 31.131 44.14 31.3132 43.7492L33.3623 39.3543H40.4387L42.4867 43.749C42.6689 44.14 43.0564 44.3697 43.461 44.3697C43.613 44.3697 43.7673 44.3373 43.9141 44.2689C44.4519 44.0183 44.6846 43.3793 44.434 42.8415L37.8751 28.7673ZM34.3639 37.2058L36.9012 31.7636L39.4373 37.2058H34.3639Z" fill="url(#paint0_linear_226_1307)"/>
<path d="M54.948 52.9527L51.9947 43.8016C53.5082 40.7701 54.0797 37.2725 53.6051 33.8986C53.092 30.2512 51.4408 26.943 48.8298 24.3319C45.1236 20.6257 39.9894 18.8823 34.846 19.5162C35.2476 16.1567 34.6491 12.8081 33.1033 9.8014C32.8321 9.27375 32.1846 9.06578 31.6568 9.33723C31.1291 9.60847 30.9214 10.2561 31.1926 10.7838C34.1279 16.4935 33.0478 23.3821 28.5048 27.925C23.9577 32.4724 16.824 33.532 11.1571 30.5023C10.9 30.3649 10.5982 30.338 10.3209 30.4272L2.73985 32.8715L5.18412 25.2902C5.27361 25.0128 5.24643 24.7111 5.10904 24.4541C2.07921 18.7871 3.13903 11.6532 7.68597 7.10609C12.2361 2.5585 19.1277 1.48052 24.8351 4.42344C25.3624 4.69533 26.0103 4.48833 26.2822 3.96099C26.5541 3.43377 26.3471 2.78591 25.8197 2.51392C22.6672 0.888413 19.1365 0.305865 15.6096 0.829116C12.0124 1.36289 8.7473 3.00784 6.16703 5.58661C3.55647 8.19738 1.90561 11.5054 1.39289 15.1534C0.918732 18.5265 1.49011 22.0245 3.00228 25.0564L0.0518386 34.2077C-0.0718037 34.5913 0.0296024 35.0119 0.314699 35.297C0.519338 35.5016 0.7938 35.6116 1.07439 35.6116C1.1846 35.6116 1.29578 35.5946 1.40396 35.5598L10.555 32.6093C13.4954 34.076 16.8743 34.6575 20.1525 34.2586C19.5382 39.3867 21.2847 44.5013 24.9759 48.1897C27.5866 50.8004 30.8942 52.4513 34.5412 52.964C37.9139 53.4383 41.4118 52.867 44.4449 51.3546L53.5961 54.3051C53.7042 54.3399 53.8154 54.3569 53.9256 54.3569C54.2062 54.3569 54.4808 54.2469 54.6854 54.0422C54.9703 53.757 55.0718 53.3363 54.948 52.9527ZM44.6789 49.1725C44.4015 49.0833 44.0998 49.1101 43.8429 49.2475C38.0849 52.3247 31.1133 51.2889 26.4946 46.67C23.1109 43.2889 21.6013 38.5338 22.3841 33.8336C25.2686 33.0826 27.8814 31.5869 30.024 29.4442C32.1787 27.2894 33.6811 24.6557 34.4283 21.7493C39.1413 20.9475 43.9136 22.4541 47.3105 25.8511C51.8596 30.4004 52.9194 37.534 49.8879 43.1989C49.7503 43.4562 49.7231 43.7581 49.8127 44.0357L52.2592 51.6165L44.6789 49.1725Z" fill="url(#paint1_linear_226_1307)"/>
<path d="M25.733 16.7888C25.733 12.1796 21.9845 8.42969 17.3771 8.42969C12.768 8.42969 9.01807 12.1796 9.01807 16.7888C9.01807 21.3965 12.768 25.145 17.3771 25.145C19.2932 25.145 21.0593 24.4952 22.4705 23.4064L25.2012 26.1372C25.411 26.3469 25.6859 26.4519 25.9608 26.4519C26.2356 26.4519 26.5106 26.3469 26.7203 26.1372C27.1398 25.7177 27.1399 25.0375 26.7203 24.618L23.9902 21.8878C25.0814 20.4758 25.733 18.7074 25.733 16.7888ZM22.455 20.3527L19.93 17.8276C19.5105 17.4083 18.8303 17.4082 18.4108 17.8276C17.9913 18.2471 17.9912 18.9273 18.4108 19.3469L20.935 21.8712C19.9267 22.5793 18.7 22.9966 17.377 22.9966C13.9525 22.9966 11.1664 20.2118 11.1664 16.7889C11.1664 13.3643 13.9525 10.5782 17.377 10.5782C20.7998 10.5782 23.5845 13.3644 23.5845 16.7889C23.5846 18.1144 23.1655 19.3432 22.455 20.3527Z" fill="url(#paint2_linear_226_1307)"/>
<path d="M29.282 7.25037C29.5539 7.25037 29.826 7.14778 30.0352 6.94207C30.4582 6.52613 30.4639 5.84604 30.048 5.42291L30.0448 5.41979C29.6288 4.99698 28.9504 4.99258 28.5273 5.40862C28.1043 5.82456 28.1001 6.50626 28.5161 6.92928C28.7263 7.14316 29.0041 7.25037 29.282 7.25037Z" fill="url(#paint3_linear_226_1307)"/>
<defs>
<linearGradient id="paint0_linear_226_1307" x1="36.9" y1="28.1465" x2="36.9" y2="44.3697" gradientUnits="userSpaceOnUse">
<stop stop-color="#E3B493"/>
<stop offset="1" stop-color="#D0916C"/>
</linearGradient>
<linearGradient id="paint1_linear_226_1307" x1="27.5" y1="0.642578" x2="27.5" y2="54.3569" gradientUnits="userSpaceOnUse">
<stop stop-color="#E3B493"/>
<stop offset="1" stop-color="#D0916C"/>
</linearGradient>
<linearGradient id="paint2_linear_226_1307" x1="18.0265" y1="8.42969" x2="18.0265" y2="26.4519" gradientUnits="userSpaceOnUse">
<stop stop-color="#E3B493"/>
<stop offset="1" stop-color="#D0916C"/>
</linearGradient>
<linearGradient id="paint3_linear_226_1307" x1="29.2816" y1="5.09961" x2="29.2816" y2="7.25037" gradientUnits="userSpaceOnUse">
<stop stop-color="#E3B493"/>
<stop offset="1" stop-color="#D0916C"/>
</linearGradient>
</defs>
</svg>
