<svg width="52" height="60" viewBox="0 0 52 60" fill="none" xmlns="http://www.w3.org/2000/svg">
<path d="M49.3638 28.9502L38.9771 18.563C38.6826 18.2778 38.3545 18.0293 38 17.8232V1C38 0.447754 37.5523 0 37 0H5C2.23975 0.00341798 0.00341798 2.23975 0 5V45C0.00341798 47.7603 2.23975 49.9966 5 50H29.0508C29.5723 55.6597 34.3164 59.9927 40 60H51C51.5523 60 52 59.5522 52 59V35.313C52.0064 32.9253 51.0571 30.6338 49.3638 28.9502ZM2 45V5C2 3.34326 3.34326 2 5 2H36V39.5859L28.979 32.5649C27.7246 31.2583 25.8613 30.7324 24.1089 31.1899C22.356 31.6475 20.9883 33.0171 20.5327 34.7705C20.0772 36.5239 20.6055 38.3862 21.9141 39.6392L23.1138 40.8452C23.1211 40.8521 23.123 40.8618 23.1299 40.8691C23.1372 40.876 23.146 40.8779 23.1538 40.8848L28.1191 45.8569C28.6831 46.4175 29.0005 47.1797 29 47.9751L5 48C3.34326 48 2 46.6567 2 45ZM23.3252 38.2212C22.7593 37.6602 22.4409 36.896 22.4409 36.0996C22.4409 35.3027 22.7593 34.5391 23.3252 33.978C24.5098 32.8457 26.3755 32.8457 27.5601 33.978L28.084 34.501L23.8428 38.7422L23.3252 38.2212ZM50 58H40C35.0317 57.9946 31.0054 53.9683 31 49V47.9751C31.0029 46.6494 30.4766 45.3779 29.5381 44.4419L25.2578 40.1558L29.5 35.9141L39.293 45.707C39.6856 46.0859 40.3091 46.0806 40.6948 45.6948C41.0806 45.3091 41.0859 44.6855 40.707 44.293L38 41.5859V20.415L47.9502 30.3638C49.2666 31.6738 50.0044 33.4561 50 35.313V58Z" fill="white"/>
<path d="M5.00003 11.9995C5.55228 11.9995 6.00003 11.5518 6.00003 10.9995V6.99953C6.00003 6.44728 6.44779 5.99953 7.00003 5.99953H11C11.5523 5.99953 12 5.55178 12 4.99953C12 4.44728 11.5523 3.99953 11 3.99953H7.00003C5.3433 3.99953 4.00003 5.34279 4.00003 6.99953V10.9995C4.00003 11.5518 4.44779 11.9995 5.00003 11.9995Z" fill="white"/>
<path d="M11 44.0001H7.00003C6.44779 44.0001 6.00003 43.5523 6.00003 43.0001V39.0001C6.00003 38.4478 5.55228 38.0001 5.00003 38.0001C4.44779 38.0001 4.00003 38.4478 4.00003 39.0001V43.0001C4.00003 44.6568 5.3433 46.0001 7.00003 46.0001H11C11.5523 46.0001 12 45.5523 12 45.0001C12 44.4478 11.5523 44.0001 11 44.0001Z" fill="white"/>
<path d="M29.0002 16.9999C29.0002 11.477 24.5232 6.99993 19.0002 6.99993C13.4773 6.99993 9.0002 11.477 9.0002 16.9999C9.0002 22.5229 13.4773 26.9999 19.0002 26.9999C24.5207 26.9941 28.9943 22.5204 29.0002 16.9999ZM26.9314 15.9999H24.9714C24.8899 14.0644 24.4065 12.1669 23.551 10.4291C25.4172 11.7221 26.6462 13.7475 26.9314 15.9999ZM18.0002 9.29974V15.9999H15.0354C15.2561 12.6161 16.5734 10.12 18.0002 9.29974ZM18.0002 17.9999V24.7001C16.5734 23.8769 15.2561 21.3808 15.0354 17.9999H18.0002ZM20.0002 24.7001V17.9999H22.965C22.7443 21.3837 21.427 23.8798 20.0002 24.7001ZM20.0002 15.9999V9.29974C21.427 10.123 22.7443 12.6191 22.965 15.9999H20.0002ZM14.4494 10.4291C13.594 12.1669 13.1106 14.0644 13.029 15.9999H11.069C11.3542 13.7475 12.5832 11.7221 14.4494 10.4291ZM11.069 17.9999H13.029C13.1106 19.9355 13.594 21.8329 14.4494 23.5707C12.5832 22.2778 11.3542 20.2524 11.069 17.9999ZM23.551 23.5707C24.4065 21.8329 24.8899 19.9355 24.9714 17.9999H26.9314C26.6462 20.2524 25.4172 22.2778 23.551 23.5707Z" fill="white"/>
</svg>
