<svg width="20" height="20" viewBox="0 0 20 20" fill="none" xmlns="http://www.w3.org/2000/svg">
<path fill-rule="evenodd" clip-rule="evenodd" d="M11.8858 1.0859C13.0836 1.34543 14.1819 1.81159 15.2313 2.50591C16.1119 3.08844 17.1971 4.17296 17.78 5.05294C18.4744 6.10108 18.9423 7.20691 19.2089 8.43003C19.3143 8.91354 19.3309 9.15864 19.3327 10.2546C19.3346 11.3773 19.3202 11.5884 19.2063 12.1202C18.7986 14.0241 17.9857 15.5197 16.6127 16.8917C15.5074 17.9963 14.3427 18.7236 12.9261 19.1936C11.8718 19.5434 11.4243 19.6076 10.0263 19.6099C8.89817 19.6117 8.69327 19.5978 8.15514 19.4822C6.25642 19.0745 4.75257 18.2577 3.38471 16.8914C2.28217 15.7901 1.54526 14.6133 1.08132 13.2131C0.728366 12.148 0.666016 11.7081 0.666016 10.2821C0.666016 9.14747 0.681164 8.91926 0.789286 8.42442C1.05813 7.19425 1.51783 6.10895 2.2174 5.05294C2.80086 4.17219 3.88539 3.0886 4.76805 2.50454C5.8285 1.80279 6.96337 1.32765 8.1276 1.0979C8.97495 0.930731 8.93953 0.933208 10.1915 0.952033C11.1149 0.965904 11.4566 0.992931 11.8858 1.0859ZM9.62682 2.46876C9.01951 2.77689 8.36863 3.85916 7.9384 5.27609C7.7991 5.73493 7.57878 6.66269 7.57641 6.80058C7.57548 6.85458 8.09598 6.86938 9.99872 6.86938C11.9011 6.86938 12.4221 6.85458 12.4217 6.80058C12.4205 6.62427 12.1348 5.49891 11.9552 4.96223C11.4549 3.46808 10.7191 2.45511 10.0767 2.3764C9.92403 2.35768 9.79261 2.38465 9.62682 2.46876ZM6.85916 3.00786C5.63512 3.54618 4.58022 4.35835 3.78691 5.37341C3.40173 5.86621 2.8934 6.6753 2.8934 6.79562C2.8934 6.85557 3.19083 6.86938 4.48262 6.86938H6.0719L6.16967 6.36023C6.38988 5.21334 6.84908 3.81149 7.24208 3.0864C7.32861 2.92678 7.38314 2.79748 7.36336 2.79908C7.34353 2.80067 7.11666 2.89463 6.85916 3.00786ZM12.7494 3.08514C13.1342 3.76784 13.5658 5.06836 13.8038 6.26209L13.9248 6.86938H15.5144C16.7494 6.86938 17.104 6.85402 17.104 6.80058C17.1039 6.68179 16.5817 5.84827 16.2063 5.3679C15.3962 4.3311 14.254 3.46648 13.0258 2.96035C12.8067 2.87003 12.6182 2.79616 12.607 2.79616C12.5957 2.79616 12.6598 2.92617 12.7494 3.08514ZM2.32558 8.3418C2.21735 8.5317 2.06676 9.6826 2.0683 10.3082C2.06934 10.7528 2.18848 11.7642 2.2759 12.071L2.32293 12.2361L4.08158 12.2507L5.84018 12.2651V10.2829V8.30051H4.09464C3.13459 8.30051 2.33852 8.31912 2.32558 8.3418ZM7.32112 8.7271C7.26532 9.27831 7.26532 11.2859 7.32112 11.8371L7.3643 12.2637H9.99872H12.6331L12.6757 11.8371C12.7307 11.2859 12.7307 9.27831 12.6757 8.7271L12.6331 8.30051H9.99872H7.3643L7.32112 8.7271ZM14.1573 10.2821V12.2651L15.9159 12.2507L17.6745 12.2361L17.7215 12.071C17.8117 11.7546 17.9281 10.7467 17.9281 10.2821C17.9281 9.81752 17.8117 8.80961 17.7215 8.49317L17.6745 8.32804L15.9159 8.3135L14.1573 8.29903V10.2821ZM2.89345 13.7636C2.89351 13.882 3.41534 14.7154 3.78806 15.1922C4.5865 16.2139 5.65103 17.0304 6.87381 17.5592C7.13935 17.674 7.36628 17.768 7.37801 17.768C7.38975 17.768 7.32861 17.6374 7.24208 17.4778C6.84853 16.7516 6.42821 15.4785 6.19368 14.3021L6.07262 13.6948H4.48301C3.248 13.6948 2.8934 13.7101 2.89345 13.7636ZM7.5757 13.7636C7.57597 13.8015 7.63606 14.0962 7.70926 14.4185C7.99788 15.6901 8.50737 16.917 9.00089 17.5292C9.70768 18.406 10.2898 18.406 10.9965 17.5292C11.4901 16.917 11.9996 15.6901 12.2882 14.4185C12.3614 14.0962 12.4215 13.8015 12.4217 13.7636C12.4221 13.7096 11.9011 13.6948 9.99872 13.6948C8.09637 13.6948 7.57531 13.7096 7.5757 13.7636ZM13.8038 14.3021C13.5658 15.4958 13.1342 16.7963 12.7494 17.479C12.6598 17.6379 12.5988 17.768 12.6136 17.768C12.6286 17.768 12.8581 17.6743 13.1236 17.5599C14.4302 16.9967 15.5177 16.1294 16.3879 14.9565C16.7101 14.5223 17.104 13.8611 17.104 13.7547C17.104 13.7129 16.6228 13.6948 15.5144 13.6948H13.9248L13.8038 14.3021Z" fill="#D0916C"/>
<path fill-rule="evenodd" clip-rule="evenodd" d="M11.8858 1.0859C13.0836 1.34543 14.1819 1.81159 15.2313 2.50591C16.1119 3.08844 17.1971 4.17296 17.78 5.05294C18.4744 6.10108 18.9423 7.20691 19.2089 8.43003C19.3143 8.91354 19.3309 9.15864 19.3327 10.2546C19.3346 11.3773 19.3202 11.5884 19.2063 12.1202C18.7986 14.0241 17.9857 15.5197 16.6127 16.8917C15.5074 17.9963 14.3427 18.7236 12.9261 19.1936C11.8718 19.5434 11.4243 19.6076 10.0263 19.6099C8.89817 19.6117 8.69327 19.5978 8.15514 19.4822C6.25642 19.0745 4.75257 18.2577 3.38471 16.8914C2.28217 15.7901 1.54526 14.6133 1.08132 13.2131C0.728366 12.148 0.666016 11.7081 0.666016 10.2821C0.666016 9.14747 0.681164 8.91926 0.789286 8.42442C1.05813 7.19425 1.51783 6.10895 2.2174 5.05294C2.80086 4.17219 3.88539 3.0886 4.76805 2.50454C5.8285 1.80279 6.96337 1.32765 8.1276 1.0979C8.97495 0.930731 8.93953 0.933208 10.1915 0.952033C11.1149 0.965904 11.4566 0.992931 11.8858 1.0859ZM9.62682 2.46876C9.01951 2.77689 8.36863 3.85916 7.9384 5.27609C7.7991 5.73493 7.57878 6.66269 7.57641 6.80058C7.57548 6.85458 8.09598 6.86938 9.99872 6.86938C11.9011 6.86938 12.4221 6.85458 12.4217 6.80058C12.4205 6.62427 12.1348 5.49891 11.9552 4.96223C11.4549 3.46808 10.7191 2.45511 10.0767 2.3764C9.92403 2.35768 9.79261 2.38465 9.62682 2.46876ZM6.85916 3.00786C5.63512 3.54618 4.58022 4.35835 3.78691 5.37341C3.40173 5.86621 2.8934 6.6753 2.8934 6.79562C2.8934 6.85557 3.19083 6.86938 4.48262 6.86938H6.0719L6.16967 6.36023C6.38988 5.21334 6.84908 3.81149 7.24208 3.0864C7.32861 2.92678 7.38314 2.79748 7.36336 2.79908C7.34353 2.80067 7.11666 2.89463 6.85916 3.00786ZM12.7494 3.08514C13.1342 3.76784 13.5658 5.06836 13.8038 6.26209L13.9248 6.86938H15.5144C16.7494 6.86938 17.104 6.85402 17.104 6.80058C17.1039 6.68179 16.5817 5.84827 16.2063 5.3679C15.3962 4.3311 14.254 3.46648 13.0258 2.96035C12.8067 2.87003 12.6182 2.79616 12.607 2.79616C12.5957 2.79616 12.6598 2.92617 12.7494 3.08514ZM2.32558 8.3418C2.21735 8.5317 2.06676 9.6826 2.0683 10.3082C2.06934 10.7528 2.18848 11.7642 2.2759 12.071L2.32293 12.2361L4.08158 12.2507L5.84018 12.2651V10.2829V8.30051H4.09464C3.13459 8.30051 2.33852 8.31912 2.32558 8.3418ZM7.32112 8.7271C7.26532 9.27831 7.26532 11.2859 7.32112 11.8371L7.3643 12.2637H9.99872H12.6331L12.6757 11.8371C12.7307 11.2859 12.7307 9.27831 12.6757 8.7271L12.6331 8.30051H9.99872H7.3643L7.32112 8.7271ZM14.1573 10.2821V12.2651L15.9159 12.2507L17.6745 12.2361L17.7215 12.071C17.8117 11.7546 17.9281 10.7467 17.9281 10.2821C17.9281 9.81752 17.8117 8.80961 17.7215 8.49317L17.6745 8.32804L15.9159 8.3135L14.1573 8.29903V10.2821ZM2.89345 13.7636C2.89351 13.882 3.41534 14.7154 3.78806 15.1922C4.5865 16.2139 5.65103 17.0304 6.87381 17.5592C7.13935 17.674 7.36628 17.768 7.37801 17.768C7.38975 17.768 7.32861 17.6374 7.24208 17.4778C6.84853 16.7516 6.42821 15.4785 6.19368 14.3021L6.07262 13.6948H4.48301C3.248 13.6948 2.8934 13.7101 2.89345 13.7636ZM7.5757 13.7636C7.57597 13.8015 7.63606 14.0962 7.70926 14.4185C7.99788 15.6901 8.50737 16.917 9.00089 17.5292C9.70768 18.406 10.2898 18.406 10.9965 17.5292C11.4901 16.917 11.9996 15.6901 12.2882 14.4185C12.3614 14.0962 12.4215 13.8015 12.4217 13.7636C12.4221 13.7096 11.9011 13.6948 9.99872 13.6948C8.09637 13.6948 7.57531 13.7096 7.5757 13.7636ZM13.8038 14.3021C13.5658 15.4958 13.1342 16.7963 12.7494 17.479C12.6598 17.6379 12.5988 17.768 12.6136 17.768C12.6286 17.768 12.8581 17.6743 13.1236 17.5599C14.4302 16.9967 15.5177 16.1294 16.3879 14.9565C16.7101 14.5223 17.104 13.8611 17.104 13.7547C17.104 13.7129 16.6228 13.6948 15.5144 13.6948H13.9248L13.8038 14.3021Z" fill="#D0916C"/>
</svg>
