<svg width="21" height="21" viewBox="0 0 21 21" fill="none" xmlns="http://www.w3.org/2000/svg">
<path fill-rule="evenodd" clip-rule="evenodd" d="M17.5542 2.99732C15.6246 1.06549 13.0585 0.00113296 10.3246 0C4.69128 0 0.106548 4.58461 0.104282 10.2195C0.103527 12.0208 0.574085 13.7791 1.4685 15.329L0.0185547 20.625L5.43652 19.2038C6.92939 20.0181 8.61008 20.4472 10.3205 20.4478H10.3248C15.9575 20.4478 20.5427 15.8628 20.5449 10.2277C20.546 7.4967 19.4839 4.92903 17.5542 2.99732ZM10.3246 18.7217H10.3211C8.79689 18.7211 7.30201 18.3115 5.99759 17.5377L5.68753 17.3535L2.47243 18.1969L3.33059 15.0623L3.12854 14.7409C2.27819 13.3884 1.82916 11.8251 1.82991 10.2201C1.83168 5.53655 5.64247 1.72613 10.328 1.72613C12.597 1.72689 14.7299 2.61161 16.3336 4.21727C17.9374 5.82294 18.8201 7.95719 18.8194 10.227C18.8173 14.9109 15.0068 18.7217 10.3246 18.7217ZM14.9841 12.3596C14.7288 12.2317 13.4733 11.6141 13.2391 11.5288C13.0052 11.4436 12.8348 11.4012 12.6647 11.6567C12.4944 11.9122 12.0051 12.4875 11.856 12.6579C11.707 12.8283 11.5582 12.8497 11.3028 12.7218C11.0473 12.594 10.2246 12.3243 9.24907 11.4543C8.48999 10.7771 7.97751 9.94089 7.82846 9.68534C7.67966 9.42954 7.8272 9.30466 7.9405 9.16418C8.21694 8.82089 8.49376 8.46098 8.57886 8.29066C8.66409 8.12021 8.62141 7.97104 8.55746 7.84326C8.49376 7.71549 7.98305 6.45853 7.7703 5.94706C7.56284 5.44931 7.35249 5.51653 7.19564 5.50873C7.04684 5.5013 6.87652 5.49979 6.7062 5.49979C6.536 5.49979 6.2593 5.56361 6.02516 5.81941C5.79114 6.07508 5.1315 6.6928 5.1315 7.94976C5.1315 9.20672 6.04656 10.421 6.17421 10.5915C6.30185 10.7619 7.97499 13.3413 10.5366 14.4473C11.1459 14.7107 11.6215 14.8676 11.9925 14.9853C12.6043 15.1797 13.1608 15.1523 13.6009 15.0866C14.0916 15.0132 15.1117 14.4687 15.3247 13.8723C15.5374 13.2757 15.5374 12.7645 15.4735 12.6579C15.4098 12.5514 15.2394 12.4875 14.9841 12.3596Z" fill="url(#paint0_linear_10_1135)"/>
<defs>
<linearGradient id="paint0_linear_10_1135" x1="0.0185555" y1="-10.7545" x2="20.9295" y2="0.0863012" gradientUnits="userSpaceOnUse">
<stop stop-color="#EEC8AA"/>
<stop offset="1" stop-color="#C7825B"/>
</linearGradient>
</defs>
</svg>
