<svg width="20" height="21" viewBox="0 0 20 21" fill="none" xmlns="http://www.w3.org/2000/svg">
<path fill-rule="evenodd" clip-rule="evenodd" d="M9.4744 0.870696C8.35712 0.985042 7.50464 1.18202 6.62596 1.52896C5.39799 2.01384 4.39933 2.65771 3.43497 3.58641C1.59472 5.35853 0.585518 7.59248 0.478401 10.131C0.409302 11.7693 0.824012 13.5508 1.61014 14.9922C1.70447 15.1653 1.78167 15.3302 1.78163 15.3587C1.78163 15.3873 1.40668 16.5103 0.948414 17.8543C0.490182 19.1983 0.115234 20.3281 0.115234 20.3648C0.115234 20.4456 0.271569 20.5994 0.353612 20.5994C0.38605 20.5994 1.56519 20.2349 2.97387 19.7893C4.38255 19.3437 5.56002 18.9791 5.59045 18.9791C5.62087 18.9791 5.84452 19.0731 6.08743 19.188C6.8822 19.5638 7.87164 19.859 8.83496 20.0077C9.46138 20.1044 10.9599 20.105 11.5865 20.0088C13.7152 19.682 15.6211 18.7337 17.11 17.2605C18.0223 16.3579 18.7577 15.2637 19.2349 14.099C19.5398 13.3548 19.7367 12.6198 19.8859 11.6686C19.9516 11.2498 19.9517 9.7613 19.8861 9.29601C19.5602 6.98453 18.525 4.98687 16.8536 3.44428C15.3922 2.09551 13.6202 1.25451 11.5865 0.944419C11.1968 0.885009 9.80835 0.836555 9.4744 0.870696ZM11.4217 2.94821C13.7001 3.3287 15.667 4.65348 16.8513 6.60526C17.346 7.42061 17.7379 8.53259 17.8674 9.4889C17.9289 9.94289 17.9298 11.0175 17.869 11.4564C17.7662 12.1977 17.4567 13.198 17.1283 13.8501C16.3722 15.3513 15.0142 16.6658 13.5009 17.3613C12.4908 17.8256 11.5921 18.0395 10.482 18.0799C8.95715 18.1354 7.53475 17.7735 6.24291 17.0015C6.05422 16.8887 5.87544 16.8091 5.81662 16.8116C5.76085 16.814 5.14845 16.9961 4.45572 17.2162C3.76298 17.4364 3.19179 17.6134 3.1864 17.6097C3.18097 17.606 3.35975 17.0609 3.58363 16.3984C3.80747 15.736 3.9904 15.1472 3.99005 15.0901C3.98966 15.0277 3.88762 14.8326 3.734 14.6005C3.02948 13.5364 2.60861 12.2765 2.52013 10.9669C2.48336 10.422 2.51548 9.68511 2.59559 9.23815C3.03429 6.78971 4.56318 4.75876 6.80035 3.65253C7.63443 3.24013 8.47129 3.00569 9.57129 2.87626C9.85292 2.84312 11.0776 2.89076 11.4217 2.94821ZM7.1879 5.99627C6.58581 6.09086 6.31562 6.20262 6.03224 6.47433C5.34075 7.13729 5.14198 8.4444 5.56328 9.55858C5.96392 10.6182 7.30935 12.3614 8.42494 13.2664C9.50843 14.1454 10.7476 14.7279 12.1678 15.0258C12.5446 15.1048 13.2379 15.1044 13.54 15.025C14.1179 14.8731 14.8135 14.3749 15.0392 13.9512C15.2443 13.5662 15.3391 12.7464 15.2078 12.4936C15.1573 12.3966 14.9988 12.3052 14.2486 11.9407C13.7543 11.7006 13.2335 11.4586 13.0913 11.4031C12.6166 11.2176 12.4983 11.2617 12.0815 11.7791C11.5841 12.3966 11.4952 12.498 11.4523 12.4975C11.4302 12.4973 11.2764 12.4381 11.1106 12.366C10.4771 12.0907 9.59202 11.4104 8.95885 10.7122C8.68839 10.414 8.25364 9.84444 8.25364 9.78835C8.25364 9.7696 8.37204 9.6181 8.51674 9.45168C8.88394 9.0294 9.00788 8.79307 9.00311 8.52445C8.99993 8.34529 8.93494 8.16209 8.58584 7.34782C8.35839 6.81737 8.12637 6.31705 8.07022 6.23599C7.89191 5.97875 7.67481 5.91977 7.1879 5.99627Z" fill="#D29470"/>
</svg>
