<svg width="21" height="15" viewBox="0 0 21 15" fill="none" xmlns="http://www.w3.org/2000/svg">
<path fill-rule="evenodd" clip-rule="evenodd" d="M13.5574 0.387404C17.434 0.528247 18.2616 0.676397 18.9922 1.3602C19.5939 1.92338 19.8431 2.67421 20.018 4.45024C20.1257 5.54454 20.1269 9.04652 20.0198 10.1822C19.8584 11.8947 19.7005 12.5455 19.325 13.0456C18.802 13.7421 18.2826 14.0028 17.1288 14.1478C14.0258 14.5379 5.02134 14.5005 2.62158 14.0875C1.39085 13.8757 0.611726 13.1413 0.34929 11.9459C0.0485165 10.5756 -0.0829848 7.6813 0.0544971 5.45805C0.214389 2.87224 0.400216 2.13276 1.0671 1.42716C1.63894 0.822153 2.18144 0.652083 3.98903 0.511304C6.20442 0.338652 10.6367 0.281331 13.5574 0.387404ZM8.04928 7.37921V10.4052L8.35364 10.2307C12.2215 8.0135 13.2699 7.40535 13.2699 7.37921C13.2699 7.35307 12.2215 6.74491 8.35364 4.52771L8.04928 4.35323V7.37921Z" fill="#D0916C"/>
<path fill-rule="evenodd" clip-rule="evenodd" d="M13.5574 0.387404C17.434 0.528247 18.2616 0.676397 18.9922 1.3602C19.5939 1.92338 19.8431 2.67421 20.018 4.45024C20.1257 5.54454 20.1269 9.04652 20.0198 10.1822C19.8584 11.8947 19.7005 12.5455 19.325 13.0456C18.802 13.7421 18.2826 14.0028 17.1288 14.1478C14.0258 14.5379 5.02134 14.5005 2.62158 14.0875C1.39085 13.8757 0.611726 13.1413 0.34929 11.9459C0.0485165 10.5756 -0.0829848 7.6813 0.0544971 5.45805C0.214389 2.87224 0.400216 2.13276 1.0671 1.42716C1.63894 0.822153 2.18144 0.652083 3.98903 0.511304C6.20442 0.338652 10.6367 0.281331 13.5574 0.387404ZM8.04928 7.37921V10.4052L8.35364 10.2307C12.2215 8.0135 13.2699 7.40535 13.2699 7.37921C13.2699 7.35307 12.2215 6.74491 8.35364 4.52771L8.04928 4.35323V7.37921Z" fill="#D0916C"/>
</svg>
